<?xml version="1.0" standalone="no"?>
<!DOCTYPE svg PUBLIC "-//W3C//DTD SVG 1.1//EN" "http://www.w3.org/Graphics/SVG/1.1/DTD/svg11.dtd" >
<svg xmlns="http://www.w3.org/2000/svg" xmlns:xlink="http://www.w3.org/1999/xlink" version="1.1">
<metadata></metadata>
<defs>
<font id="backyardregular" horiz-adv-x="1171" >
<font-face units-per-em="2048" ascent="1536" descent="-512" />
<missing-glyph horiz-adv-x="512" />
<glyph unicode="&#xd;" horiz-adv-x="512" />
<glyph unicode=" "  horiz-adv-x="512" />
<glyph unicode="&#x09;" horiz-adv-x="512" />
<glyph unicode="&#xa0;" horiz-adv-x="512" />
<glyph unicode="!" horiz-adv-x="550" d="M104 336v4q0 10 7.5 23.5t17.5 25.5t22.5 20.5t22.5 8.5q14 0 38 -16.5t52.5 -37t61 -37t65.5 -16.5h125q4 2 6 2q4 2 10 2q2 0 4.5 1t4.5 1t4 2q10 4 40 17.5t38 17.5q6 8 17 19.5t23.5 23t25.5 18.5t22 7q6 0 18 -8t23.5 -18.5t19.5 -23t8 -22.5q0 -16 -9 -23.5 t-21 -19.5q-66 -59 -139.5 -90t-164.5 -31q-98 0 -187 39t-155 111zM182 662q0 57 27 100t65.5 80t85 68.5t85 64.5t65.5 67.5t27 79.5q0 41 -27 76t-68 35q-35 0 -61.5 -13.5t-48.5 -41.5q-2 -2 -6 -12.5t-7.5 -20.5t-6.5 -18.5t-7 -8.5h-92q-8 0 -11 9.5t-3 15.5 q0 45 20.5 82t52 64.5t72.5 43t82 15.5q106 0 167.5 -60.5t61.5 -169.5q0 -53 -26.5 -99t-66.5 -87t-86 -76t-86 -65.5t-66.5 -57t-26.5 -51.5v-51q0 -14 12.5 -32.5t30.5 -35t37.5 -28t34.5 -11.5h69q33 0 53.5 22.5t35 50.5t25.5 50.5t23 22.5h76q10 0 15.5 -7.5 t5.5 -11.5q0 -37 -18.5 -79t-49.5 -75.5t-68.5 -56t-76.5 -22.5h-127q-14 0 -22.5 5t-20.5 11q-150 66 -150 228z" />
<glyph unicode="-" horiz-adv-x="659" />
<glyph unicode="." horiz-adv-x="548" />
<glyph unicode="/" horiz-adv-x="761" d="M229 170q0 18 8.5 45t19.5 55.5t21.5 56t14.5 46.5q33 131 75 258t83 252q35 100 58 202.5t64 200.5q2 4 7.5 14.5t15.5 10.5h61q10 0 11.5 -6.5t1.5 -12.5q0 -29 -14.5 -55.5t-20.5 -54.5q-25 -115 -66 -221.5t-69 -221.5q-12 -47 -26.5 -95t-33.5 -93 q-16 -37 -26.5 -79t-19.5 -84t-21.5 -82t-32.5 -77q-2 -2 -2 -4t-1 -4t-1 -4q-2 -10 -2 -20q-4 -20 -8 -27q-10 -10 -25.5 -10h-26.5h-30q-4 0 -9.5 3t-5.5 7z" />
<glyph unicode="0" d="M90 635v39q4 14 17.5 20t30 9.5t32.5 3.5h27q18 0 41.5 -17.5t51 -39t60.5 -40t66 -18.5h176q4 0 12 7t8 11v97q0 8 -10 11t-14 3q-61 -4 -121.5 0t-117 22.5t-104.5 53t-83 92.5q-6 10 -17.5 25.5t-11.5 25.5v182q0 29 19.5 54.5t29.5 50.5q35 37 57.5 54t44 27.5 t46 19.5t61.5 28h111q10 0 14 -5t14 -10q53 -18 85 -38.5t54.5 -47t39 -62.5t36.5 -85v-39l5 -123v-39q0 -10 2 -29.5t18 -23.5h47q18 0 37.5 3t37 10t29 21.5t11.5 37.5t-12.5 33t-25.5 18t-25.5 17.5t-12.5 27.5v96q0 10 9 9t14 -1q37 0 72.5 -17t63 -45t44 -64.5 t16.5 -73.5q0 -63 -28.5 -101.5t-73.5 -59t-99.5 -26.5t-103.5 -8q-12 -8 -20 -20q-4 -57 -4.5 -111.5t-0.5 -112.5q-4 -16 -9 -20t-19 -8h-133q-51 0 -118 -3t-118 11q-35 10 -61.5 33.5t-61.5 23.5q0 -33 29 -71.5t70 -71.5t86 -54.5t77 -21.5h330q6 0 14.5 18.5t14.5 41 t11 43t7 26.5q16 37 46 79t69 78t83 59.5t89 23.5q14 0 23.5 -15.5t15.5 -35t8 -39t2 -25.5q0 -14 -6 -14l-66 -35q-4 0 -14 -4t-14 -4q-80 -53 -109.5 -139.5t-34.5 -176.5q0 -4 -6 -14t-14 -10h-410q-104 0 -185 37t-137.5 101.5t-85 150.5t-28.5 184zM268 1040 q0 -33 13.5 -65.5t37 -59t54 -44t67.5 -17.5h148q8 0 14 8t10 17v67q0 43 -3 90t-18.5 86t-47 64.5t-88.5 25.5q-37 0 -70 -12t-59.5 -35.5t-42 -55.5t-15.5 -69z" />
<glyph unicode="1" d="M127 1001q0 37 29.5 43.5t62.5 6.5h23q8 -6 18 -34t22.5 -62.5t23.5 -67.5t20 -47q23 -43 63.5 -77t79.5 -61q23 0 49.5 12.5t26.5 41.5q0 10 -14.5 23.5t-32 25.5t-33.5 22.5t-21 16.5q-49 53 -62 107t-13 126q14 23 21 50.5t24 50.5q33 49 85 77.5t111 28.5 q55 0 98.5 -20.5t73 -56.5t44 -82t14.5 -97v-43q-4 -14 -16.5 -32.5t-26 -37t-23.5 -35t-10 -28.5q0 -8 4 -8h18q37 0 66 30.5t51.5 69.5t38.5 72t29 39h22h25.5t29 -3t23.5 -11.5t10 -24.5q0 -57 -31.5 -106.5t-78.5 -86.5t-104.5 -60.5t-106.5 -33.5q-23 -4 -50.5 -3 t-50.5 -9q-10 -4 -18 -19.5t-8 -29.5q0 -2 29.5 -19.5t66.5 -43t68.5 -55.5t38.5 -58q4 -23 4 -44.5v-48.5q0 -63 -16.5 -104t-63.5 -84q-43 -23 -78 -38t-84 -15t-92 21.5t-75 56t-49 79.5t-17 93v47t12 45q10 16 27.5 44.5t17.5 47.5q-20 29 -54 44t-57 36 q-31 25 -62.5 64.5t-59 85.5t-45 93.5t-17.5 85.5zM496 408q0 -47 28.5 -83t77.5 -36q43 0 79 31.5t36 74.5q0 29 -13.5 55.5t-34 49t-47 36t-55.5 13.5q-20 0 -33.5 -15.5t-21.5 -38t-12 -47t-4 -40.5zM506 1032q0 -27 7 -56.5t21.5 -54t37 -40t53.5 -15.5q33 29 60.5 77 t27.5 97q0 43 -32 75t-75 32q-49 0 -74.5 -36t-25.5 -79z" />
<glyph unicode="2" d="M117 696q0 23 27.5 39.5t64.5 26.5t72.5 15t50.5 5q53 0 96 -20.5t86 -20.5q12 0 24.5 9.5t22.5 21.5t17.5 27.5t7.5 27.5q0 18 -16.5 30.5t-38 21t-45 11.5t-37.5 3h-117q-16 14 -28.5 41t-12.5 49q0 14 15.5 22.5t37 11.5t43 4t33.5 1q31 0 58.5 -9t51 -19.5t42 -19.5 t32.5 -9q8 0 12 8v14q0 43 -24.5 75t-60 52.5t-76.5 29.5t-74 9q-23 0 -47.5 -1t-46.5 -9q-6 -4 -19.5 -14.5t-30 -20.5t-33 -18.5t-30.5 -8.5q-8 0 -17.5 13.5t-17.5 31t-13 35t-5 23.5q0 25 25.5 42t60.5 29.5t69.5 20.5t55.5 14h88q25 -10 52.5 -13t51.5 -13 q41 -20 72 -43t54.5 -50.5t43 -59.5t39.5 -71q4 -37 4 -57v-49q0 -98 -53 -184q-16 -27 -44 -53.5t-28 -61.5q0 -16 8.5 -33.5t17.5 -35t16.5 -35t7.5 -35.5v-174q-25 -47 -42.5 -73t-36 -41t-45 -27.5t-69.5 -33.5h-39q-35 0 -77 13.5t-78.5 36t-61.5 56.5t-25 73v86 q0 39 34 72.5t74 62t73.5 55.5t33.5 49v11l-10 4h-35q-57 0 -92 -17.5t-82 -40.5h-4q-8 0 -19 10.5t-20.5 24.5t-16.5 29.5t-7 23.5zM322 379q0 -49 25.5 -70.5t72.5 -21.5q45 0 80 22.5t41 65.5v41q0 12 -1 36.5t-5.5 50t-13.5 45t-25 19.5t-45 -22.5t-57.5 -53t-50 -62.5 t-21.5 -50z" />
<glyph unicode="3" d="M135 860q0 74 25.5 139.5t72 114.5t110 79t136.5 30q39 0 72 -15.5t65 -27.5q41 0 83 8t77 31h103q23 -10 50 -13.5t50 -13.5q119 -47 181.5 -134t84.5 -214q0 -4 -3 -8.5t-9 -4.5h-100q-6 0 -13.5 13.5t-14.5 31t-12.5 33t-7.5 17.5q-45 84 -114.5 121.5t-163.5 37.5 q-72 0 -133.5 -35.5t-100.5 -93.5q-6 -10 -22 -36.5t-16 -45.5q0 -12 2 -17t16 -5q41 23 78 33t84 10t100 -18.5t99.5 -51t77 -78t30.5 -98.5q0 -100 -41 -157.5t-131 -100.5q-6 0 -8 -2q-4 0 -6 -2h-115q-12 0 -30.5 7t-37 18.5t-32 26t-13.5 26.5q0 20 20.5 47t39.5 27 q29 0 54.5 -17.5t57.5 -17.5q49 0 83 35.5t34 85.5q0 37 -18.5 62.5t-46 43t-61.5 24.5t-64 7q-49 0 -91.5 -20.5t-73 -54.5t-47 -78t-16.5 -93q0 -55 19.5 -103t53.5 -85t80 -59.5t101 -26.5l4 -11q2 -16 2 -30q2 -12 2 -24.5v-20.5v-15q0 -6 -1 -15t-7 -13h-22 q-61 0 -117.5 25.5t-102 66.5t-77 94t-43.5 111q-2 8 -3 23.5t-4.5 32.5t-6.5 32.5t-7 21.5q-6 8 -19.5 17.5t-28.5 18.5t-29.5 18.5t-22.5 15.5q-66 53 -90.5 122.5t-24.5 147.5zM272 848q0 -18 6.5 -53t19.5 -68t32.5 -57.5t44.5 -24.5q20 0 30.5 31t15.5 69.5t6 71.5 t1 35t4 18l8 58q2 6 2 11t2 7q6 14 18.5 32.5t25 38t21.5 38t9 30.5t-9 14.5t-22 2.5q-49 0 -89 -22.5t-67.5 -59.5t-43 -82t-15.5 -90z" />
<glyph unicode="4" d="M152 498v98q16 33 30.5 65.5t36 58t51 41t76.5 15.5q80 0 142.5 -43t93.5 -117q29 -35 53 -61.5t52 -43.5t61.5 -26.5t80.5 -9.5l11 8v15q0 37 -22.5 65.5t-56.5 54t-73 52t-72.5 57.5t-56 70t-22.5 92q0 55 30.5 88t67.5 51.5t67.5 28.5t30.5 22v4q-35 35 -61.5 57.5 t-77.5 22.5q-43 0 -70.5 -20.5t-56.5 -55.5q0 -4 -4 -21t-14 -17l-95 -5q-12 0 -14 8.5t-2 18.5q0 51 23.5 92t60.5 70t84 44t94 15q59 0 108.5 -21.5t84 -60.5t54 -91t19.5 -111q0 -31 -31.5 -37t-68.5 -11.5t-68.5 -19.5t-31.5 -61q0 -35 23.5 -65t57 -56.5t69.5 -48 t58 -39.5q12 -12 29 -42t30 -60.5t24.5 -54.5t15.5 -24q29 0 47 26t28.5 59.5t15.5 67.5t5 50q0 37 -14.5 69t-31.5 56.5t-31.5 43t-14.5 28.5v4q16 20 37.5 44t42.5 40l8 4q23 0 45.5 -27.5t43 -64.5t32.5 -74t12 -55v-121q0 -10 -4 -21.5t-8 -17.5q-14 -49 -37 -85 t-51.5 -62.5t-65.5 -48t-82 -44.5q-4 0 -8 -4l-6 -6q-39 -39 -67.5 -64.5t-57.5 -42t-63.5 -28.5t-85.5 -29h-152q-78 0 -156 45t-127 103q-29 33 -43 70.5t-28 78.5q0 6 -2 11q0 2 -2 4zM293 528q0 -39 21.5 -78.5t55 -71.5t76.5 -51.5t86 -19.5h156q27 0 56.5 12.5 t35.5 40.5q-8 16 -35.5 13.5t-44.5 3.5q-43 14 -75.5 31.5t-69.5 44.5q-23 18 -42 50t-40.5 61.5t-47.5 52t-60 22.5q-25 0 -39.5 -10.5t-21.5 -25.5t-9 -35t-2 -40z" />
<glyph unicode="5" d="M100 600q0 49 10.5 100.5t36.5 92.5q10 16 28 34.5t35 38t29.5 38t12.5 34.5q0 20 -6 41v47q0 43 10 86t31.5 81t54.5 65.5t78 39.5q14 4 34.5 7.5t34.5 11.5h78q16 -8 37 -8t37 -11q78 -39 126 -103.5t48 -156.5v-38.5t-10 -34.5v-52q70 -66 108.5 -144.5t38.5 -176.5 q0 -39 -9 -71t-17 -66q-4 -8 2 -11.5t12 -3.5q25 0 43 21.5t31.5 50.5t20.5 60.5t7 50.5q0 29 -10 57.5t-10 54.5q0 12 9 20.5t22.5 13.5t29 7t25.5 2q12 0 21.5 -12t15.5 -28.5t8 -34t2 -27.5v-105q0 -29 -15.5 -62.5t-39 -64t-52 -53t-57.5 -29.5q-20 -6 -54 -11t-50 -15 q-18 -12 -29.5 -29.5t-30.5 -34.5q-47 -37 -116.5 -66.5t-130.5 -29.5h-148q-12 0 -18 8.5t-6 18.5q0 8 1 22.5t4 28.5t10 24.5t19 10.5q23 0 45.5 -2t44.5 -2h56q6 2 34.5 7t59.5 13t55.5 19.5t24.5 25.5l-4 4q-86 43 -128 96.5t-42 151.5q0 53 8 97t27 94q4 18 17 40.5 t13 36.5q0 10 -9 16.5t-20.5 10.5t-22.5 5t-17 3h-52h-52t-52 -4q-16 -2 -16 -22q0 -35 15 -66t28 -63q31 -92 30 -193q0 -55 -27.5 -107.5t-68.5 -87.5q-10 -6 -27.5 -13t-23.5 -7h-86q-25 0 -47.5 13.5t-41 34t-32.5 45t-22 44.5q-6 41 -7.5 63.5t-1.5 57.5zM213 537 q4 -8 9 -23.5t12.5 -30t18.5 -24.5t23 -10h48q14 0 25 16t18.5 36.5t10.5 41t3 28.5q0 14 -8 56.5t-20.5 86.5t-26 77.5t-23.5 33.5q-23 0 -40 -29.5t-28.5 -68.5t-16.5 -78t-5 -57v-55zM358 999q0 -12 3.5 -14t7.5 -2q25 0 47 12.5t43 12.5h108q27 0 58.5 -15.5t58.5 -15.5 q12 0 15 19.5t3 25.5q0 78 -47 127t-123 49t-125 -51t-49 -125v-23zM692 610q0 -25 6.5 -54.5t20.5 -55t37.5 -43t56.5 -17.5q10 0 15.5 8.5t8.5 20.5t3 23.5v17.5v70q0 6 1 19t1 28.5t-1 30t-5 22.5q-2 10 -11.5 33.5t-21.5 48t-26.5 44t-26.5 19.5q-14 0 -25.5 -29.5 t-19 -68.5t-10.5 -73t-3 -44z" />
<glyph unicode="6" d="M119 850l4 10q25 23 39 44.5t21 45t10.5 51t7.5 60.5q8 78 61 128t133 50h25q14 -6 30.5 -8t30.5 -10q41 -25 74 -63t33 -89v-178l20 -6q19 -6 43.5 -13.5t46 -13.5t27.5 -8q33 -16 64.5 -39t56 -51.5t40 -64.5t15.5 -77v-258q0 -39 -20.5 -68.5t-51 -50t-67.5 -31.5 t-70 -11q-59 0 -111.5 24.5t-74.5 83.5q-6 14 -5 27.5t-14 21.5q-16 10 -40.5 18.5t-40.5 18.5q-59 37 -95.5 90.5t-36.5 124.5q0 86 46.5 146.5t117.5 101.5q18 10 31.5 11t22.5 24v61q0 29 -1.5 59.5t-10.5 56.5t-28.5 43t-56.5 17q-39 0 -59.5 -21.5t-28.5 -52t-10 -65.5 t-8 -61q-6 -18 -19.5 -45t-32 -51.5t-40 -42t-41.5 -17.5q-27 0 -32 28.5t-5 49.5zM371 604q0 -20 10 -46t27.5 -46t39 -34.5t44.5 -14.5l4 4v137l-4 14v142q0 4 -5.5 6t-9.5 2q-6 0 -14 -4q-33 -27 -62.5 -70t-29.5 -90zM584 471q4 -8 10 -8q16 0 28.5 12t20.5 29.5t12 36 t7 28.5q10 14 25 16.5t32 2.5h24q6 -8 7 -23q0 -43 -24 -77.5t-52.5 -61.5t-52 -44t-23.5 -28q0 -14 12.5 -25.5t29.5 -18.5t34.5 -10t25.5 -3q41 0 72 30.5t31 71.5v176q0 90 -58.5 148.5t-146.5 58.5l-10 -10q-2 -47 -2 -92q0 -39 -1 -79t-1 -66v-64z" />
<glyph unicode="7" d="M139 467q0 25 11.5 64.5t32 76.5t47 64.5t57.5 27.5q10 0 21 -11t20.5 -26.5t15.5 -30t6 -22.5v-4q-37 -35 -62.5 -66.5t-25.5 -80.5q0 -43 21.5 -76t53.5 -53.5t70.5 -30.5t73.5 -10q39 0 83 9t82 30.5t62.5 55.5t24.5 83q0 18 -7 36t-17 34l-45 45q-6 6 -19.5 10l-27 8 t-23.5 10t-10 17v178q0 4 -6.5 12t-10.5 8h-313q-4 0 -10 6.5t-6 10.5v164q0 59 36.5 113.5t92.5 76.5q18 6 34.5 10t34.5 11h70q55 -25 92 -46.5t58.5 -51t29.5 -71.5t10 -108q4 -10 23.5 -21.5t44 -21.5t49.5 -19.5t35 -15.5q35 -20 71.5 -52t66.5 -72t49.5 -84t19.5 -89 q0 -6 -3 -15t-14 -9h-80q-2 0 -21 41t-53 89t-78 89t-97 41q-12 0 -13 -10v-78l4 -8q4 -2 17.5 -14.5t30 -27t32 -27.5t19.5 -18q12 -23 21 -40t15.5 -34.5t9.5 -36t3 -44.5q0 -72 -32 -128t-82 -94t-114.5 -58.5t-130.5 -20.5h-53q-59 8 -112.5 33.5t-94.5 65.5t-65.5 92.5 t-24.5 113.5zM358 948q0 -4 3.5 -8t9.5 -4h196q6 0 9.5 7t3.5 15v23q0 53 -36 79.5t-83 26.5q-35 0 -55.5 -11t-30.5 -29.5t-13.5 -44t-3.5 -54.5z" />
<glyph unicode="8" d="M74 639q0 70 21.5 119t51.5 106q53 59 105.5 90t128.5 54h203q4 0 9 5t5 9v172q0 6 18.5 8t22.5 2h17.5t19.5 -2q12 0 24 -2l13 -6v-176l2 -4q2 0 4 -2q4 0 4 -4h178q37 0 67.5 -21.5t52 -52.5t33 -68t11.5 -67q0 -23 -1 -35t-5 -41q-27 -49 -64 -73.5t-80 -34t-90 -8.5 t-98 3q-23 -6 -25 -22.5t-2 -40.5q0 -6 13.5 -10.5t32 -8.5t36 -7t25.5 -7q57 -16 106.5 -53t90.5 -80l22 -27.5t14 -27.5t-9 -19.5t-22.5 -15.5t-25.5 -9t-18 -3q-12 0 -20.5 7t-15.5 17t-14.5 20.5t-13.5 16.5q-8 4 -30.5 24.5t-30.5 26.5q-35 14 -67 30.5t-73 16.5 q-8 0 -22 -13t-28.5 -30.5t-28 -35t-19.5 -23.5q-25 -23 -55.5 -34t-65.5 -21h-53q-76 0 -141.5 27.5t-112.5 74.5t-73.5 113.5t-26.5 142.5zM180 603q0 -13 2 -38q29 -78 92.5 -128t149.5 -50q78 0 125 56.5t47 129.5v23q-4 8 -7 9t-11 5h-117q-4 0 -13.5 1t-19.5 1t-22 2 l-9 7v26l-1 11q-1 10 0 21t5.5 20.5t12.5 9.5h168q2 0 8 3t6 7v182q0 4 -6 6q-2 0 -6 2h-72h-64.5t-64.5 -4q-14 -14 -39 -22.5t-41 -18.5q-59 -35 -91 -97t-32 -128v-36zM709 895l4 -180l2 -2l8 -4h149q41 0 65 31.5t24 70.5q0 14 -8.5 31.5t-20.5 32t-27.5 24.5t-32.5 10 h-149q-4 0 -9 -6t-5 -8z" />
<glyph unicode="9" d="M126 909.5q-1 14.5 1 27.5t8 23.5t21 10.5q29 0 55.5 -10.5t53 -22.5t52 -22.5t52.5 -10.5q10 0 13 1.5t7 11.5q-2 66 4 119t27.5 95t61.5 73.5t104 56.5q4 0 12 4t12 8h103q20 0 47.5 -11.5t55.5 -28.5t50.5 -37.5t30.5 -37.5l45 -90v-176q0 -39 -29.5 -76t-64.5 -67.5 t-64.5 -53t-29.5 -32.5q0 -14 9 -31t21.5 -33t25.5 -31.5t21 -27.5q35 -61 58.5 -128t40.5 -134q0 -12 -12.5 -19.5t-29 -11.5t-32.5 -5t-25 -1q-14 0 -23 15t-14.5 34.5t-7.5 38t-4 26.5q-16 23 -22 48.5t-23 50.5q-35 59 -72.5 108t-86.5 96q-10 6 -28 23.5t-34 17.5 q-6 0 -9 -7t-3 -13v-303q0 -4 -9.5 -19.5t-15.5 -25.5q-31 -53 -76 -71.5t-100 -18.5h-49q-10 4 -25.5 8t-29 10t-22.5 17.5t-9 25.5q0 18 18.5 42t34.5 36h8q23 0 37.5 -14.5t36.5 -14.5q35 0 60.5 23.5t25.5 58.5v320q0 23 -39 36t-86 24t-89 21.5t-48 24.5v25 q0 10 -1 24.5zM504 860q2 -6 24.5 -25.5t50 -40t54 -37t35.5 -16.5q35 0 64.5 25t51 58.5t34.5 72.5t13 66q0 25 -8 56.5t-23.5 59t-39 46t-55.5 18.5h-91q-41 0 -63.5 -34t-32.5 -80t-12 -94t-2 -75z" />
<glyph unicode="?" horiz-adv-x="888" d="M96 541v43q4 10 13.5 44t21.5 69.5t27.5 64.5t31.5 29q23 0 49.5 -21.5t26.5 -42.5q0 -16 -14 -35.5t-21 -32.5q-12 -29 -20 -67.5t-8 -67.5q0 -35 20.5 -78t52 -81.5t70.5 -64.5t76 -26h102q45 0 86 25t73 62.5t50.5 84t18.5 86.5q0 29 -8.5 64t-20.5 63q-6 18 -20.5 34 t-14.5 34v8q2 2 8 10.5t15.5 17.5t20.5 16t20 7q25 0 45 -33.5t33.5 -76.5t20.5 -85t7 -59q0 -111 -59.5 -203.5t-161.5 -138.5q-4 0 -30.5 -12t-41.5 -12h-176q-10 0 -22.5 6t-24.5 10q-111 45 -178.5 141.5t-67.5 217.5zM307 508v41q0 51 14.5 79.5t32.5 69.5q16 18 38 40 t40.5 45.5t31.5 49t13 52.5q0 25 -13 38t-28.5 22t-29 14.5t-13.5 13.5v88q0 6 13.5 13t29 17.5t28.5 24.5t13 35q0 23 -13 34t-28.5 18t-29 13.5t-13.5 14.5v84l4 4h25q20 0 48 -8t53.5 -22.5t43 -36t17.5 -46.5v-94q0 -8 -7.5 -19.5t-17.5 -23.5t-20.5 -22.5l-14.5 -14.5 v-22q6 -4 16.5 -14.5t19.5 -21.5t16.5 -23.5t7.5 -20.5v-84q0 -37 -28 -70t-59.5 -67.5t-59 -72.5t-27.5 -81q0 -33 16 -61.5t51 -28.5q72 0 72 72q0 14 -4 26t-4 29q0 23 17 39t38 16q12 0 21.5 -15.5t14.5 -34.5t8 -37.5t3 -27.5q0 -72 -48 -113.5t-118 -41.5 q-57 0 -109.5 33.5t-60.5 97.5z" />
<glyph unicode="A" horiz-adv-x="1308" d="M-858 -770q0 20 14.5 32.5t32.5 12.5q20 0 32.5 -14.5t12.5 -32.5q0 -20 -14.5 -33.5t-32.5 -13.5q-20 0 -32.5 15.5t-12.5 33.5zM92 471v135q0 16 8.5 28.5t10.5 22.5q25 76 60.5 137.5t94.5 114.5q8 4 21 4q10 0 26.5 -16t32.5 -37.5t28.5 -41t12.5 -25.5 q-18 -27 -46 -48.5t-46 -50.5q-25 -39 -33 -83t-8 -89q0 -59 23.5 -113.5t64.5 -95.5t94 -65.5t113 -24.5q51 0 91 13.5t72.5 36t61.5 53t57 65.5q4 6 9.5 20.5t11.5 32t10 31.5l6 21q2 18 4 32q4 10 8.5 20.5t12.5 10.5h111q12 0 18 -15.5t6 -25.5q0 -88 -40 -171 t-105.5 -146.5t-149.5 -101.5t-172 -38q-84 0 -156.5 27t-131 74t-100.5 111.5t-64 142.5q-4 6 -10.5 25.5t-6.5 29.5zM526 631v321q0 78 43 150t109.5 126t146.5 87t154 33h25q12 0 12 -17v-114q0 -6 -3 -17.5t-14 -11.5q-96 -4 -171.5 -51t-122.5 -129 q-10 -27 -17.5 -53.5t-13.5 -53.5q-4 -66 -4 -131v-131q0 -6 -5.5 -19.5t-15.5 -13.5h-92q-4 -4 -16 -4q-8 0 -11.5 9.5t-3.5 19.5zM692 631q0 4 4 4t4 -4t-4 -4t-4 4z" />
<glyph unicode="B" horiz-adv-x="1331" d="M147 846q0 88 58.5 149.5t146.5 61.5h490q35 0 58.5 24.5t23.5 57.5q0 29 -15.5 44t-33 24.5t-33 15.5t-15.5 18v109q0 8 11.5 9t13.5 1q43 0 83 -19.5t70.5 -51.5t48 -72.5t17.5 -81.5q0 -29 -9 -58.5t-26 -54.5q-37 -41 -71.5 -65.5t-90.5 -24.5h-479q-39 0 -55 -11.5 t-47 -35.5q-6 -8 -7 -16.5t-1 -22.5v-10q0 -8 4 -17l39 -39q6 -6 15 -7t18.5 -3t15.5 -7t6 -15v-95q0 -8 -4 -16t-12 -12h-25q-41 0 -77 20.5t-61.5 52t-41 70.5t-15.5 78zM156 283q0 98 40 168.5t132 103.5q10 2 26.5 9t26.5 7h672q37 0 67.5 35t30.5 72q0 88 -80 123 q-2 2 -11 5t-19.5 6t-19.5 6l-9 3v99q0 6 8 17t12 11h25q35 0 74.5 -16.5t74.5 -44t57.5 -62t22.5 -73.5v-121q0 -33 -22.5 -69t-56 -65.5t-72.5 -49t-72 -19.5h-686q-16 0 -32.5 -12.5t-30 -28.5t-21.5 -35.5t-8 -34.5q0 -37 18.5 -56t42 -30.5t47 -19.5t33.5 -23 q8 -10 8 -33.5v-37.5v-35q-8 -18 -22 -19q-43 0 -88 17.5t-82 46.5t-61.5 70t-24.5 86z" />
<glyph unicode="C" horiz-adv-x="1294" d="M92 944v8q0 10 1 13.5t7 11.5q4 6 11.5 16.5t14.5 22.5t13 22.5t8 12.5q72 98 175.5 157.5t226.5 75.5h57q88 0 171 -26.5t153.5 -75.5t124 -119t84.5 -156q10 -18 21 -56t11 -67v-172q0 -23 -11 -58.5t-17 -53.5q-27 -88 -82 -161t-130 -125t-162 -80t-177 -28h-57 q-29 8 -63 7.5t-58 13.5q-49 25 -104.5 48.5t-103.5 55t-79 78.5t-31 117q0 92 63.5 152.5t155.5 60.5q39 0 82 -18.5t78 -36.5q23 -25 55.5 -41.5t57.5 -38.5q27 -23 58.5 -49.5t66.5 -50t71.5 -39t73.5 -15.5q29 0 58.5 32t54 75t40 88t15.5 71q0 41 -28.5 70t-68.5 49.5 t-84 29.5t-77 9q-29 0 -55.5 -2t-50.5 -14q-14 -8 -37 -25.5t-37 -17.5t-28.5 10t-27 24.5t-22.5 29t-16 20.5v4q0 20 26.5 40.5t61 36t68.5 25.5t48 10h117q20 0 53 -18t66 -39.5t56.5 -40t25.5 -18.5q4 0 5 4t1 6q0 49 -37 105.5t-89 105.5t-111.5 82t-104.5 33h-143 q-35 0 -74 -16.5t-75 -41t-66.5 -52.5t-51.5 -50q-8 -8 -15 -23.5t-16.5 -30t-19.5 -24.5t-24 -10q-10 0 -25.5 6t-31 15.5t-28 18.5t-18.5 17zM238 406l4 -9q23 -33 56.5 -64.5t73.5 -55t85 -38t88 -14.5h145q8 0 31.5 10.5t23.5 20.5q0 8 -9 12t-20 6t-22.5 4.5t-17.5 6.5 q-29 16 -58.5 31.5t-54.5 37.5q-25 18 -54.5 45t-62 49.5t-66.5 39t-65 16.5q-8 0 -21 -2t-25.5 -8.5t-21.5 -14.5t-9 -20v-53z" />
<glyph unicode="D" horiz-adv-x="1495" d="M111 772v113q2 4 2 6q2 4 2 10v2q2 2 2 4l8 29l4 8q18 78 54.5 133.5t95.5 108.5q29 14 57.5 31.5t57 33t60 26.5t66.5 11h109q16 0 34.5 -7t30.5 -11q86 -25 145.5 -71t108.5 -120q2 -4 12.5 -29.5t21.5 -55t20.5 -54.5t11.5 -25h4q2 0 4 3l18 10q2 0 3 1t4 1 q43 18 95 39.5t101 21.5h205q12 0 35.5 -2t49.5 -6t48.5 -9t32.5 -11q14 -8 18 -13.5t21 -5.5q14 0 18 10v41v49l-2 173q0 18 -1 31.5t-1 17.5v4q0 4 5 11t11 7h117q10 0 12.5 -3t2.5 -11q0 -12 -5 -19v-372l5 -9q18 -29 46.5 -51t51.5 -47q12 -12 38.5 -50t52.5 -82 t46.5 -88t20.5 -69q0 -10 -13.5 -18t-30 -14t-34 -9.5t-25.5 -3.5q-35 0 -39 19.5t-12 44.5q-4 12 -20.5 44t-36 65.5t-40 60t-34.5 26.5q-8 0 -20.5 -17t-24.5 -38.5t-24.5 -42t-18.5 -29.5q-70 -80 -164 -128t-203 -48q-82 0 -155.5 30t-137.5 83q-8 8 -26.5 33.5 t-39 53.5t-37.5 49.5t-24 21.5q-10 0 -27.5 -30t-33.5 -66.5t-28.5 -71.5t-16.5 -45q-8 -39 -13.5 -83t-5.5 -85q0 -29 5.5 -59.5t5.5 -63.5v-23q-2 -10 -18.5 -17t-36 -11t-38 -6.5t-26.5 -2.5q-14 0 -22.5 28t-12.5 61.5t-5 61.5t-1 30q0 104 35 206.5t90 190.5 q10 16 30.5 38.5t41 45.5t35 46.5t14.5 41.5q0 41 -23.5 90t-60.5 92t-81 72t-85 29h-113q-39 0 -84 -23.5t-84 -59.5t-65.5 -79t-26.5 -84q0 -47 2 -83t11.5 -68.5t26.5 -63.5t48 -70q6 -10 19.5 -18t26 -16.5t21.5 -17.5t9 -21q0 -6 -8 -23.5t-18.5 -36t-23 -33 t-22.5 -14.5q-20 0 -32.5 13.5t-26.5 23.5q-78 59 -115 130t-63 163q0 6 -2 8q0 4 -2 6zM1038 750q0 -8 8.5 -24.5t14.5 -27.5q49 -74 115.5 -113.5t158.5 -39.5q94 0 173 48t124 132q8 14 16.5 26.5t8.5 28.5t-25.5 28.5t-59.5 21t-64.5 12.5t-41.5 4h-84h-74.5t-74.5 -4 q-8 -6 -40 -15.5t-65.5 -21.5t-61.5 -26.5t-28 -28.5z" />
<glyph unicode="E" horiz-adv-x="1138" d="M74 963q0 23 9 42t21 39q29 49 57.5 85t64.5 63t79 45t98 33q4 0 11.5 2t11.5 2h944q4 -2 8 -2t6 -1t5 -1q6 0 18 -3t27.5 -7.5t28 -7.5t18.5 -5q68 -29 118 -76t87 -108q8 -10 10 -25.5t8 -27.5q10 -14 12 -15.5t2 -17.5v-193q0 -39 -31.5 -92t-77.5 -101t-99.5 -82 t-98.5 -34h-739q-6 0 -8 9.5t-2 13.5v12v16l2 52v16l6 6q6 6 10 6h659q53 0 97.5 26.5t77 67.5t50 91.5t17.5 97.5q0 37 -16.5 79t-44 77.5t-64.5 58t-78 22.5h-952q-53 0 -92 -32.5t-66.5 -71.5t-47 -71.5t-36.5 -32.5q-10 0 -28.5 1t-37 5t-31.5 13.5t-13 25.5zM283 543 q0 156 77.5 261t225.5 159q10 4 24.5 9t24.5 5h115q18 0 59 -15.5t82 -37t72.5 -45t31.5 -39.5q0 -10 -7 -21.5t-15 -15.5l-64 -64h-4q-8 0 -20.5 7.5t-24.5 16.5t-22.5 18.5t-16.5 13.5q-31 20 -61.5 25t-65.5 5q-55 0 -105 -22.5t-88 -61.5t-59.5 -90t-21.5 -108 q0 -55 21.5 -108.5t59.5 -93.5t89 -64.5t108 -24.5q53 0 96.5 23.5t86.5 52.5q8 4 11 13t13 9h4l82 -78q6 -6 7 -12t1 -10q0 -29 -39.5 -55.5t-92 -46t-103.5 -32t-74 -12.5q-115 0 -206 59.5t-150 155.5q-14 23 -21.5 46.5t-23.5 44.5q-4 41 -5 67.5t-1 65.5z" />
<glyph unicode="F" horiz-adv-x="1062" d="M129 680v41q10 31 11 61.5t10 63.5q20 92 79 175t127 146q12 6 29.5 21.5t36 32t37 29t33.5 12.5q6 0 18 -13.5t24.5 -31t21.5 -35t9 -25.5t-11 -17.5t-25.5 -18.5t-30 -17t-23.5 -17q-90 -76 -149.5 -178t-59.5 -223q0 -57 10.5 -116.5t40.5 -112.5q10 -16 23.5 -29.5 t19.5 -32.5q80 -86 180.5 -126t217.5 -40q37 0 67.5 7.5t63.5 13.5q61 10 114.5 32.5t93.5 59.5t62.5 87t22.5 116q0 57 -38 94t-91 51h-35q-23 0 -47.5 -2t-42.5 -12q-16 -8 -24.5 -18.5t-31.5 -10.5q-20 0 -34.5 18.5t-26.5 34.5v7q0 12 19.5 28.5t45 29.5t49 23.5 t31.5 12.5q16 2 42 2h44q57 0 106.5 -22.5t86.5 -60.5t57.5 -88t20.5 -106q0 -12 -4 -23t-6 -26q-16 -104 -70.5 -177t-131.5 -118t-170 -65.5t-190 -20.5q-49 0 -82.5 2t-87.5 13q-207 59 -324.5 205.5t-117.5 363.5zM430 680v37q12 23 16.5 44t14.5 42q35 76 100.5 133 t151.5 65h35.5t54 1.5t54.5 1.5h36q2 0 3 1t5 1l25 2h8q25 27 47.5 47t22.5 61t-29 73t-68 44q-25 8 -36 10t-16 8t-4 20.5t1 45.5v45q4 12 11 14t20 2q35 0 78 -18.5t80.5 -46t64.5 -62t27 -69.5v-125q0 -27 -17.5 -54.5t-42 -50t-52.5 -39t-48 -22.5q-47 -10 -102.5 -12 t-94.5 -2q-49 -8 -96 -25.5t-78 -60.5q-4 -8 -17.5 -31t-13.5 -39v-86q0 -33 20.5 -60.5t49.5 -46t63.5 -29t61.5 -10.5h50.5t45.5 17q12 8 21.5 18.5t27.5 10.5q6 0 16.5 -6.5t20.5 -15.5t18.5 -19.5t10.5 -18.5q0 -6 -5 -13t-9 -11q-45 -41 -93.5 -58.5t-107.5 -17.5 q-70 0 -130.5 21.5t-105.5 61.5t-70.5 96t-25.5 126z" />
<glyph unicode="G" horiz-adv-x="1490" d="M109 872q0 14 5 18.5t15 10.5q27 2 45.5 2h44.5q29 0 59.5 -3t61.5 -3q14 0 26.5 9t22.5 23.5t19.5 29t17.5 22.5q6 6 31.5 24.5t52.5 39t48.5 38t21.5 19.5q-2 2 -2 4q-2 0 -3.5 1t-3.5 1q-41 23 -74.5 27t-86.5 8q-8 4 -10.5 14t-2.5 19l-2 49v14v12q0 16 9.5 21.5 t25.5 5.5q47 0 101.5 -16.5t95.5 -42.5q12 -6 23.5 -18.5t23.5 -26t25.5 -22.5t27.5 -9q25 0 44.5 2t43.5 2q102 0 178 -25.5t154 -85.5q12 -10 28.5 -28.5t32.5 -26.5q12 -8 28.5 -9t33 0t33 1t30.5 -6q143 -55 217 -151.5t74 -250.5q0 -35 -1 -56.5t-9 -62.5 q-12 -23 -21.5 -47t-23.5 -45q-57 -90 -150.5 -135t-195.5 -45h-56q-68 8 -139.5 45t-116.5 86q-18 23 -30.5 42.5t-24.5 35.5t-27.5 29.5t-42.5 21.5q-53 16 -103 43t-91 68l-156 155q-12 0 -16 -11t-4 -19q0 -27 3 -65t11 -60q2 -6 8 -20.5t12.5 -29t11.5 -28.5t5 -21 q0 -6 -2 -10q-23 -8 -45.5 -26.5t-44.5 -18.5q-20 0 -33.5 36t-22 80t-11.5 85t-3 49q0 27 2 52.5t2 51.5q0 23 -14 31q-23 4 -37 4h-37q-20 0 -38.5 -4t-39.5 -4q-10 0 -16 2t-8 12q-4 18 -7 42t-3 44zM467 842q0 -8 16.5 -27.5t39 -41t44 -42t29.5 -31.5q35 -41 72 -74.5 t77 -68.5q6 -6 21 -6q4 0 9 6t5 10q0 18 -12 31.5t-16 32.5q-2 14 -12.5 72.5t-25 123t-32.5 115.5t-37 51q-16 0 -46 -18.5t-59.5 -43t-51 -50t-21.5 -39.5zM782 1006q0 -35 15.5 -70t19.5 -70q2 -6 3 -32.5t3 -56t6.5 -53.5t12.5 -24q6 0 15 17.5t20.5 39t21.5 42t16 26.5 q16 16 32 34t34 32q8 4 22.5 11t30 15.5t26.5 18.5t11 20q0 6 -17.5 15.5t-40 19.5t-42 17.5t-25.5 7.5t-24.5 2t-39 4t-38 3t-23.5 1h-10q-10 0 -19.5 -4t-9.5 -16zM941 612q1 -10 1 -37q0 -25 2 -40t6 -28t10.5 -28.5t16.5 -38.5q25 -23 44 -43t40.5 -36.5t49.5 -30 t67 -19.5h45q35 0 81 6.5t70 32.5l74 72q31 33 40 80t9 88q0 70 -32.5 133t-96.5 98q-4 4 -27.5 17.5t-42.5 13.5q-12 0 -12 -10q0 -41 11.5 -85t11.5 -85q0 -10 2 -28.5t1 -38t-6.5 -36t-17.5 -22.5q-10 0 -27.5 1t-35 4t-30.5 11t-13 23q0 27 7 50t7 50q0 8 -2 32.5 t-7 52.5t-13.5 49.5t-20.5 21.5q-31 0 -64.5 -20.5t-63.5 -51.5t-51.5 -64.5t-27.5 -60.5q-6 -23 -5 -33z" />
<glyph unicode="H" horiz-adv-x="1517" d="M150 715q0 10 2 17t14 11q6 0 20.5 1t30.5 2.5t30.5 2.5t20.5 1q14 0 20.5 -7.5t8.5 -17.5t3 -21.5t5 -21.5q2 -8 14.5 -31.5t16.5 -32.5q12 -25 41 -52t62.5 -50.5t69.5 -39t64 -15.5q6 2 7 14q0 16 -16.5 43t-22.5 41q-16 45 -22.5 94t-6.5 101q0 53 11.5 113.5 t35.5 107.5q8 16 16.5 25.5t8.5 25.5q0 2 -1 9t-8 7h-24l-13 -3q-12 -3 -28 -8t-33.5 -10t-27.5 -9q-4 -4 -17.5 -9.5t-17.5 -9.5h-4q-6 0 -17.5 13.5t-22 30t-18.5 33t-8 22.5q0 16 21.5 27t55.5 18.5t72.5 11.5t74.5 6t61.5 4t32.5 4q31 12 57 35t54 45.5t57.5 39.5 t64.5 17q23 0 36 -29.5t13 -47.5q0 -14 -14.5 -26.5t-32.5 -23t-36.5 -17.5t-26.5 -11q-6 -4 -7 -17q0 -10 10.5 -18t23.5 -15.5t26.5 -12.5t19.5 -11q47 -37 89 -88t65 -106q8 -43 11 -84t3 -86q-10 -16 -8 -33t-6 -33q-14 -33 -29.5 -56.5t-32.5 -49.5q-6 -10 -32.5 -34 t-55.5 -48q-35 -27 -77 -60q0 -16 17 -27.5t42 -19.5t49.5 -14t36.5 -13q33 -6 57.5 -7t59.5 -1q129 0 226 65.5t159 174.5q6 10 16 46t21.5 74t21.5 68.5t14 30.5h107q16 0 16 -20q0 -119 -47 -224.5t-127 -184.5t-186.5 -125t-224.5 -46q-88 0 -176.5 23.5t-159.5 76.5 q-8 4 -19.5 15.5t-23 22.5t-21.5 19.5t-16 8.5h-141q-14 0 -28.5 8t-29.5 14q-57 16 -115.5 50t-105.5 80.5t-76.5 103.5t-29.5 123zM657 743q0 -14 4.5 -56t14.5 -87t25.5 -80t39.5 -35q33 0 66 26t60.5 61.5t47 74.5t25.5 64q0 53 -8 94t-26.5 73.5t-48.5 61.5t-73 59 q-18 14 -43 15q-12 0 -24 -16.5t-22.5 -39t-18.5 -46t-14 -35.5q-4 -41 -4.5 -68t-0.5 -66z" />
<glyph unicode="I" horiz-adv-x="694" d="M47 1016q0 51 6 91t33 83q63 72 124.5 106.5t160.5 34.5l10 -10v-109q0 -14 -12.5 -21t-28.5 -10t-32.5 -5t-26.5 -9q-23 -14 -35.5 -26.5t-32.5 -34.5q-10 -16 -18.5 -39t-8.5 -43q0 -45 30 -92t73 -62h24q35 0 68 19.5t68 30.5q49 16 97 22t99 6q55 0 107.5 -6 t105.5 -27q6 -2 21.5 -9t31 -15t29.5 -14.5t16 -6.5h60q18 0 35.5 18.5t32 43t22.5 49.5t8 35q0 16 -4 43.5t-14 40.5l-58 55q-10 10 -28.5 15.5t-36 9.5t-30.5 12t-13 25v104q0 10 16.5 10h20.5q51 0 89 -18.5t81 -40.5q61 -57 88.5 -112.5t27.5 -139.5q0 -35 -1 -53.5 t-11 -55.5q-4 -14 -25.5 -39.5t-46.5 -50.5q-27 -31 -59 -63q0 -20 21.5 -40t31.5 -36t20.5 -41t18.5 -50.5t13.5 -49t7.5 -41.5v-68q0 -37 -1 -66.5t-8 -66.5q-16 -23 -22 -55l-49 -99q-2 -8 -11.5 -11t-17.5 -3q-12 0 -29.5 8t-33 20.5t-25.5 28t-10 29.5q0 27 16.5 45.5 t24.5 40.5q12 31 14 62.5t2 62.5q0 78 -27.5 146.5t-89.5 119.5q-16 14 -36.5 23.5t-34.5 25.5q-51 29 -107.5 44.5t-113.5 15.5q-88 0 -167 -26.5t-139.5 -76t-96.5 -121t-36 -163.5q0 -55 18.5 -99.5t47.5 -95.5v-8q0 -10 -11.5 -24.5t-27.5 -26.5t-34.5 -21.5t-31.5 -9.5 q-18 0 -37.5 34t-35 75t-25.5 79.5t-10 47.5v61q0 47 7 90t24 86q6 16 19 38t26.5 43.5t24.5 40.5t11 32q0 14 -23.5 30.5t-31.5 26.5q-27 23 -43 45.5t-33 50.5q-10 20 -11 51t-1 54z" />
<glyph unicode="J" horiz-adv-x="559" d="M80 1057q0 35 15.5 74.5t42 75.5t59 59.5t69.5 23.5h115q20 0 42.5 -11t39.5 -22q35 -27 69.5 -73.5t34.5 -93.5v-795q0 -23 20.5 -47.5t37.5 -38.5q16 -6 31.5 -10t31.5 -4q41 0 62.5 20.5t35 45t23.5 45t27 20.5h75q4 0 9.5 -6.5t7.5 -10.5v-28q0 -31 -12.5 -64 t-33 -61.5t-47 -51t-57.5 -32.5q-31 -6 -46 -7.5t-42 -1.5q-68 0 -125 28t-92 87q-12 20 -24.5 50t-12.5 53v792q0 4 -4 17.5t-8 17.5l-41 39q-10 10 -31.5 12t-34.5 2q-39 0 -58 -20.5t-30.5 -45t-20.5 -45t-28 -20.5h-74q-8 0 -17 9.5t-9 17.5zM635 1094q0 35 14.5 62.5 t32.5 60.5q20 18 45 45.5t57 27.5h115q20 0 46 -16.5t49.5 -41t39 -52t15.5 -50.5v-497q0 -41 29.5 -64.5t66.5 -23.5q8 10 22.5 20t22.5 21q6 12 10 35.5t27 23.5h98q8 0 9 -11t1 -16q0 -25 -14 -57.5t-37.5 -62t-51.5 -51t-56 -21.5h-95q-47 0 -80.5 36t-56.5 70 q-2 4 -9 9.5t-7 13.5v535q0 29 -29 50t-55 21q-27 0 -41.5 -15.5t-22.5 -33.5t-14 -33.5t-18 -15.5h-95q-12 0 -15 11t-3 20z" />
<glyph unicode="K" horiz-adv-x="1267" d="M82 688v92q0 59 1 120t13.5 118t39 108.5t77.5 92.5q59 47 112.5 64t129.5 17h49t45 -4q31 -4 64.5 -21.5t64.5 -42t56.5 -52t39.5 -52.5q4 -6 10.5 -19t12.5 -26.5t12 -23.5t10 -12q14 -10 30.5 -7.5t33.5 -5.5q59 -25 101 -46t75 -50t58.5 -70t49.5 -106q0 -2 1 -3 t1 -3t2 -4v-422q0 -33 -16 -67t-44 -61.5t-61.5 -45t-68.5 -17.5h-90q-37 0 -66.5 17.5t-52 45t-39 59.5t-28.5 63q0 4 -3 6q0 2 -2 4l5 280v232q4 10 4 16v12q0 20 -21 21q-14 0 -33.5 -11.5t-39 -27.5t-36 -34.5t-26.5 -30.5q-8 -10 -9 -14.5t-2 -6.5t-3 -5t-13 -13 q-6 -27 -7 -43.5t-1 -38.5q0 -43 7 -77t28 -69q6 -16 20.5 -27.5t14.5 -27.5q0 -10 -7.5 -24.5t-18.5 -26.5t-24.5 -21.5t-23.5 -9.5q-16 8 -24.5 17.5t-22.5 23.5q-35 59 -52.5 113.5t-17.5 124.5q0 82 24.5 137t82.5 115q12 14 25.5 19t25.5 21q8 4 32.5 17.5t30.5 17.5 t18.5 6t25 5.5t21.5 10.5t9 19q0 18 -18.5 39t-43 39t-50 33.5t-37.5 21.5q-18 10 -41 11.5t-45 1.5q-51 0 -97.5 -20.5t-81 -54.5t-55 -79t-20.5 -96v-236q0 -2 -2 -13t-11 -11h-86q-14 0 -22 18zM827 397l4 -57q2 -37 39 -58.5t70 -21.5h26.5t26.5 10l45 43q8 10 13.5 35 t5.5 39l-2 8l-2 4v271q0 41 -17.5 84t-46 77.5t-66.5 58t-81 23.5q-8 0 -11.5 -6t-3.5 -10v-500z" />
<glyph unicode="L" horiz-adv-x="1073" d="M102 565q0 143 74 230.5t209 128.5q2 0 4 1t4 1q4 0 6 2h105q27 0 56.5 -14.5t51.5 -24.5q59 -25 96 -65t57.5 -89t28 -104.5t7.5 -112.5q-4 -12 -7 -33.5t-9.5 -43t-16.5 -37t-29 -15.5q-12 0 -28.5 6t-30.5 17.5t-24.5 25t-10.5 25.5q0 31 12.5 55.5t12.5 59.5 q0 41 -18.5 78.5t-49.5 67.5t-69.5 47t-79.5 17q-31 0 -66 -13t-65.5 -36.5t-52 -53.5t-23.5 -62v-101q0 -4 2 -11t2 -9q4 -10 7 -15.5t5 -8.5t3 -8t1 -15v-13q0 -2 -13 -12t-29.5 -19.5t-33 -17.5t-22.5 -8q-16 0 -25.5 15.5t-15.5 36t-10 40t-11 27.5q0 8 -2 16zM369 512 q0 27 16 31q6 0 19.5 1t30 1t29.5 1t19 1h9q6 0 13 -18.5t14 -41t12.5 -43t7.5 -24.5q23 -29 51 -59.5t65 -45.5q20 -4 36 -5t34 -1q33 0 69.5 14.5t67.5 39t51.5 57.5t20.5 67v613q18 49 41.5 96t77.5 70q14 6 23 14t26 8h123q33 0 63.5 -23.5t53 -57t37 -71.5t14.5 -69 q0 -4 -4.5 -10t-14.5 -6h-100q-12 0 -20.5 16t-18.5 35.5t-27.5 36t-46.5 16.5q-31 0 -58.5 -26.5t-27.5 -61.5v-588q0 -12 -5 -23.5t-9 -21.5q-57 -178 -227 -256q-25 -10 -59 -8t-58 2h-55q-57 10 -110.5 42t-93.5 78t-64.5 103.5t-24.5 116.5z" />
<glyph unicode="M" horiz-adv-x="1857" d="M125 764q0 45 13.5 85t34 77t45 72.5t44.5 72.5q43 47 96.5 91t112.5 80t123.5 58.5t128.5 28.5h117h91t95 -2q8 -4 16.5 -8t16.5 -6q121 -27 224 -82t179 -137t119 -190.5t43 -239.5v-66q-16 -147 -100 -266q-43 -37 -72 -65.5t-57.5 -48t-67.5 -29t-102 -9.5 q-57 0 -107.5 14.5t-89.5 45t-61.5 76.5t-22.5 110v42t2 44q25 33 46.5 64.5t58.5 54.5q6 4 27.5 11t45 14.5t42 15.5t20.5 10v10q0 18 -17.5 40t-40 41.5t-47 35.5t-41.5 25l-10 2q-23 10 -55.5 11t-56.5 1q-12 0 -47 -1t-72 -7t-64.5 -18.5t-27.5 -35.5q0 -6 28.5 -23.5 t62 -48t61.5 -74.5t28 -103q0 -41 -15.5 -76t-42 -59.5t-62.5 -38t-75 -13.5q-111 0 -166 52.5t-55 164.5q0 16 4 33.5t4 34.5q0 8 -1 16t-9 8h-4q-29 -25 -51.5 -57.5t-34.5 -66.5v-52q0 -14 1 -35.5t5 -44t13.5 -42t25.5 -29.5q20 -10 27.5 -13.5t19.5 -21.5 q0 -10 -5 -29.5t-13.5 -39t-20.5 -34t-24 -14.5q-6 0 -14.5 2t-12.5 6l-76 76q-37 37 -48 93.5t-11 105.5q0 92 47 173t131 122q37 18 59.5 24t41 13.5t37 21.5t46.5 45l4 4q59 45 119 72t129 43q57 0 102.5 -4t86.5 -16.5t79.5 -36t81.5 -62.5q14 -14 23.5 -29.5 t23.5 -25.5q25 -47 48.5 -93t23.5 -104q0 -27 -18 -32q-31 0 -71 -3.5t-77 -15.5t-61.5 -36.5t-24.5 -67.5q0 -27 11.5 -51.5t31 -44t44 -31t50.5 -11.5q49 0 96.5 26t84.5 66t59.5 89t22.5 98v149q0 14 -7.5 25.5t-11.5 26.5q-27 115 -109.5 199.5t-189.5 131.5 q-29 14 -66.5 22.5t-62.5 25.5q-8 2 -28.5 5t-44 6t-43 5t-27.5 2h-37q-166 0 -310.5 -80t-226.5 -227q-8 -14 -14 -35t-12 -41t-14.5 -38.5t-24.5 -29.5q-6 0 -19.5 -1t-29 -1t-28.5 -1t-19 -1q-27 0 -27 25zM584 551q0 -35 22.5 -65.5t59.5 -30.5q33 0 59.5 23.5 t26.5 56.5q0 25 -9.5 50t-25 46.5t-38 36t-48.5 14.5q-18 0 -28.5 -15.5t-14.5 -37t-4 -44v-34.5z" />
<glyph unicode="N" horiz-adv-x="1556" d="M94 760q0 49 19.5 87t51.5 63.5t73 40t86 14.5q29 0 52 -8.5t52 -8.5q12 0 27.5 19.5t30 45t26.5 50t18 35.5v10q0 10 -5 18.5t-17 8.5h-68q-14 -6 -30.5 -8.5t-34.5 -2.5q-14 0 -25.5 12.5t-17.5 30t-9.5 35t-3.5 27.5q0 16 11.5 23.5t21.5 11.5q20 4 33.5 5t25 2 t22.5 1h26h56.5t49.5 -4q27 -4 48 -11.5t46 -7.5q27 0 42.5 13.5t37.5 27.5q63 41 134 51.5t143 10.5q40 0 70 1h9q26 0 58 -5q74 -8 145.5 -52.5t133 -109t105.5 -139t60 -144.5q4 -41 4.5 -78t0.5 -77v-86q-4 -78 -48.5 -165t-110 -163t-146 -128t-158.5 -61 q-35 -4 -58.5 -4h-60.5q-66 0 -133.5 12.5t-124.5 49.5q-6 4 -19.5 15t-29 22.5t-30.5 20.5t-28 9q-23 0 -44 -10t-42 -16q-23 -6 -48 -7t-50 -1h-42t-65.5 4t-60.5 14t-27 31q0 27 14.5 53.5t20.5 48.5l13 12h18q41 0 75 -13t77 -13h34q4 0 11.5 5t7.5 9q0 14 -9.5 30.5 t-21.5 33t-23.5 32t-17.5 29.5q-10 20 -18 45t-13 47q-6 20 -7 46t-3 52.5t-8 51t-20 43.5q-14 20 -31 27t-37 7q-39 0 -58.5 -18t-31.5 -39.5t-24.5 -40t-41.5 -18.5q-31 0 -59.5 4t-28.5 41zM569 782q0 -20 8.5 -76.5t23.5 -117t38 -107.5t51 -47q29 0 60.5 37t57.5 85 t43 95t17 66v96q-8 23 -12 43.5t-10 42.5q-14 57 -58.5 99t-80.5 83h-13q-29 0 -51 -40t-38.5 -92t-26 -101.5t-9.5 -65.5zM805 334q0 -10 33.5 -21.5t75.5 -19.5t79 -13.5t43 -5.5q90 0 166 45.5t131.5 115t86 156.5t30.5 169q0 86 -30.5 168t-86 146.5t-131.5 104.5 t-166 40h-46t-74.5 -5.5t-69.5 -17.5t-31 -35q0 -2 15.5 -19.5t36 -39t39 -43t24.5 -31.5q20 -31 36.5 -62.5t30.5 -66.5q6 -37 7.5 -63.5t1.5 -61.5q0 -66 -8.5 -135.5t-45.5 -126.5q-6 -10 -30.5 -36.5t-50 -56.5t-46 -54.5t-20.5 -30.5z" />
<glyph unicode="O" horiz-adv-x="1599" d="M246 426q0 10 7 13t17 3q6 0 20.5 -1t31 -1t31 -1t20.5 -1q4 0 8 -16t13 -36.5t26.5 -37t48.5 -16.5q29 0 62.5 21.5t33.5 54.5v593q2 4 2 7q2 4 2 10q2 10 10.5 31.5t8.5 23.5q35 80 104.5 130t153.5 71q47 0 85 -6t71.5 -19.5t65.5 -35t67 -54.5q10 -10 15 -22.5 t17 -20.5q23 -45 38.5 -85t15.5 -91q0 -8 -1 -17.5t-12 -9.5h-80q-20 0 -31.5 35t-33 77t-60 77t-112.5 35q-39 0 -76 -15.5t-63.5 -43t-43 -63.5t-16.5 -77v-537q0 -41 -15 -71.5t-40 -55t-56.5 -42t-64.5 -33.5q-4 0 -6 -2q-2 0 -4 -2h-74q-10 0 -22.5 7t-16.5 11 q-59 25 -103 83t-44 130zM831 860q0 10 1.5 40t6.5 60.5t17 55t33 24.5q6 0 21.5 -6t33 -16t29.5 -21.5t12 -21.5q0 -27 -13.5 -54.5t-13.5 -56.5q0 -39 16.5 -74.5t43 -63.5t63.5 -43t76 -15q41 0 79 15t66.5 42t45 63.5t16.5 79.5q0 29 -13.5 54.5t-13.5 54.5 q0 12 10.5 21.5t24.5 17.5t28.5 13t22.5 11q12 0 20.5 -2t16.5 -14q16 -41 23.5 -75t7.5 -75q0 -25 1 -56.5t-9 -55.5q-29 -63 -75 -119.5t-112 -81.5q-16 -8 -33.5 -11t-35.5 -11h-2q-2 0 -4 -2q-2 0 -4 -2h-107q-12 0 -22.5 7t-22.5 9q-88 25 -137 76t-90 137 q-2 25 -4.5 48t-2.5 48z" />
<glyph unicode="P" horiz-adv-x="1239" d="M152 664v161q0 31 12 69t16 67q31 35 47.5 76.5t42.5 80.5q66 90 158 135t197 68q18 4 35.5 9t35.5 5q10 0 20.5 -4t12.5 -18q0 -8 2 -36t2 -36v-6q0 -25 -16.5 -37t-39 -18t-47 -8.5t-40.5 -6.5q-14 -4 -32.5 -12t-33.5 -16q-78 -39 -129 -110t-80 -146 q-6 -14 -12 -27.5t-6 -30.5v-168q0 -61 32.5 -119.5t84 -106.5t112 -79t117.5 -37h66q51 0 93 6.5t93 22.5q25 8 46.5 24.5t43.5 26.5q66 61 103.5 119.5t37.5 146.5v33t-3 38.5t-7 36.5t-14 26l-55 55q-10 10 -33 21.5t-39 11.5h-86q-35 0 -69 -30t-50 -58q-6 -10 -13 -36 t-13.5 -51.5t-11.5 -45.5l-5 -21h-113q-8 0 -13 6t-9 10v27q0 29 7 50.5t15 49.5q35 125 113 182.5t209 57.5q82 0 143.5 -27.5t102.5 -77t61.5 -117t20.5 -147.5v-55q-8 -29 -13.5 -59.5t-19.5 -59.5q-57 -131 -157.5 -198.5t-231.5 -98.5q-14 -2 -27.5 -9t-28.5 -7h-151 q-12 0 -25.5 7t-27.5 9q-96 25 -168 67t-140 116q-14 16 -22 35.5t-25 35.5q-2 6 -8 19.5t-14 29t-14.5 29.5t-10.5 21q-4 8 -4 15t-2 15q-2 6 -5 19.5t-6 30t-6 29.5t-5 20z" />
<glyph unicode="Q" horiz-adv-x="1599" d="M125 739v21q0 41 16.5 74.5t43 60.5t61.5 41t71 14q31 0 57.5 -10t55.5 -10q12 0 20.5 9t12.5 21.5t7 25.5t9 22q8 14 23.5 34.5t31 42t26.5 43t11 35.5q0 10 -13 11.5t-21 1.5h-131q-25 0 -52.5 -15.5t-53.5 -33t-49.5 -33t-37.5 -15.5q-4 0 -18.5 12.5t-29.5 28 t-26.5 29.5t-11.5 20q0 8 8.5 17.5t14.5 13.5q74 45 148.5 80t166.5 35q45 0 88 -9.5t84 -21.5q18 -6 39.5 -17.5t40.5 -11.5q12 0 24.5 6.5t22.5 10.5q47 18 92 30.5t94 12.5q141 0 247 -75t159 -204q8 -18 8 -38.5t4 -41.5v-47q0 -29 -1 -57.5t-9 -56.5q-2 -12 -13.5 -35 t-26.5 -45.5t-30.5 -40t-27.5 -17.5q-6 0 -21.5 10.5t-31 26t-27 30.5t-11.5 24q0 16 16.5 33.5t24.5 33.5q18 31 21.5 67t3.5 70q-8 18 -10 35t-11 35q-35 84 -113.5 123t-164.5 39q-4 0 -17.5 1t-29 -1t-27.5 -5t-12 -14q0 -12 21.5 -32.5t29.5 -30.5q47 -66 80 -141 q2 -29 14.5 -61t12.5 -60v-135q0 -25 -12.5 -66t-30 -84t-37 -81t-33.5 -58q-10 -12 -27.5 -25.5t-17.5 -36.5q0 -8 16.5 -12t38 -6t43 -2h29.5q27 0 58.5 2t56.5 12l73 37q14 14 21.5 18.5t23.5 10.5q4 2 11.5 9t15.5 16.5t15.5 16.5t9.5 9q4 4 11 13t16 19.5t19.5 18.5 t18.5 8q12 0 28.5 -7t33 -18.5t27.5 -24.5t11 -25v-9q-47 -57 -100 -100t-117 -84q-39 -16 -78.5 -26.5t-78.5 -22.5q-4 -4 -13 -4q-4 -2 -8 -2h-106q-12 0 -34 5t-44.5 12t-44 14.5t-33.5 13.5q-10 4 -25.5 13t-31.5 9q-29 0 -53.5 -16t-53.5 -25q-6 0 -12 -2l-35 -6 q-6 -2 -12 -2q-10 -4 -22.5 -10t-22.5 -6h-109q-18 0 -62 14t-89 34.5t-80 43t-35 39.5q0 10 8 26.5t20.5 33t26 27.5t25.5 11q18 0 43.5 -22.5t42.5 -32.5q39 -23 85 -30t91 -7h41t47 4q14 0 14 12t-8 27.5t-19.5 31t-21.5 30t-16 22.5q-39 68 -57.5 147.5t-20.5 155.5 l-4 10q-8 23 -35 35t-47 12q-33 0 -48 -16t-24.5 -34.5t-18.5 -35t-30 -16.5h-82q-6 0 -10 7t-4 9zM557 764q0 -29 13.5 -90.5t36 -123t52 -108.5t64.5 -47q20 18 46 57.5t47.5 83.5t35.5 88t14 70v146q0 20 -16 67t-41 94.5t-51.5 84t-44.5 36.5q-23 0 -36 -19.5t-24 -35.5 q-47 -66 -71.5 -144.5t-24.5 -158.5z" />
<glyph unicode="R" horiz-adv-x="1273" d="M109 621v184q0 51 26.5 100t48.5 96q68 92 156 156t203 80q16 16 42.5 14t47.5 -2q63 0 112.5 -13t108.5 -34q16 -6 29.5 -14t29.5 -14q6 -4 19.5 -13.5t29 -20t29 -19.5l19.5 -13q16 -10 31.5 -25.5t37.5 -15.5q12 0 20.5 6t20.5 10q12 6 36 5t34 -1h41 q78 -10 140.5 -50t111.5 -99q31 -51 53.5 -107.5t22.5 -119.5q0 -133 -75 -232.5t-192 -156.5q-20 -10 -56 -9.5t-54 0.5q-25 0 -50.5 2t-52.5 2q-8 0 -17 -1t-18 -5q-68 -66 -139 -103.5t-162 -60.5q-10 -2 -22 -9t-25 -7h-110q-16 0 -27.5 7t-26.5 9q-135 27 -233 119 t-154 221q-12 31 -24 65t-12 69zM240 715q0 -121 56 -227.5t161 -165.5q27 -14 55.5 -21.5t50.5 -24.5q25 -4 40 -4h38q25 0 39 1t47 6q57 23 101 47t92 61q10 8 25.5 25.5t31.5 36t32.5 32t24.5 13.5q16 0 32.5 -7.5t35 -16.5t40 -17.5t44.5 -8.5q49 0 91 22.5t73.5 58.5 t49 82t17.5 93q0 43 -12 84t-37 75t-59.5 56.5t-77.5 30.5h-44.5t-32.5 -2t-32.5 -6t-42.5 -12q-16 -6 -21 -15.5t-24 -9.5h-4l-10 4q-18 16 -30.5 32.5t-28.5 33.5q-66 59 -147 100t-173 41q-82 0 -155.5 -30.5t-128 -85t-86 -126t-31.5 -155.5z" />
<glyph unicode="S" horiz-adv-x="1124" d="M102 403q0 45 5.5 87t20.5 78t46 62.5t80 39.5q4 4 24.5 9t24.5 5h623q8 0 11 6t3 10q0 10 -3 10.5t-11 12.5q-35 49 -78 92t-107 53h-53h-19.5h-28.5t-29.5 -1t-20.5 -3q-14 -4 -33.5 -16t-38 -25.5t-36 -24t-29.5 -10.5q-8 0 -22.5 7.5t-28 17.5t-22.5 22.5t-9 22.5 q0 33 41 59.5t94 45t103 27.5t71 9q117 0 206 -60t144 -161q10 -18 12 -35.5t15 -35.5q8 -10 11 -11.5t13 -1.5q33 0 61.5 19.5t50 49.5t34 63.5t12.5 62.5q0 72 -43 131t-113 78l-8 4q-4 0 -6 1t-4 1q-8 4 -22.5 9t-22.5 5h-410q-6 0 -10 5t-6 7q0 29 -2 44t-2 38 q0 18 14 23.5t29 5.5h85t128.5 -1t129 -1h85.5h10l31 -4h10q10 0 18.5 -8t18.5 -13q55 -16 91 -44.5t60.5 -67.5t40 -84t29.5 -92v-37q0 -98 -50 -178t-144 -115q-23 -8 -58 -14.5t-51 -18.5q-16 -14 -21.5 -46t-15.5 -52q-20 -45 -55 -90t-79 -81t-95 -58.5t-105 -22.5 h-383q-2 0 -9 1t-11 1q-8 4 -35 11t-35 10q-43 29 -77.5 71.5t-43.5 95.5zM233 451q0 -41 26 -73t71 -32h358q37 0 72 17.5t69 29.5q4 4 13.5 14.5t20.5 21.5l21.5 21.5l14.5 14.5q12 12 24.5 37.5t12.5 42.5q0 4 1 11t-7 7h-590q-51 0 -79 -32.5t-28 -79.5z" />
<glyph unicode="T" horiz-adv-x="1138" d="M121 1012v22q4 4 10 12.5t12 8.5h95q6 0 18 -44t43 -98.5t84 -98.5t139 -44h600l8 -4l7 -6l4 -4v-101q0 -4 -9.5 -7t-11.5 -3h-667q-68 0 -128.5 34t-105.5 86t-71.5 117.5t-26.5 129.5zM637 332v6q0 14 10 29.5t24.5 29t31 22.5t28.5 9h8t9 -4q63 -70 149 -106.5 t178 -36.5q86 0 162 37.5t132 99t89 140.5t33 163t-34 163t-92 138t-134 95t-162 36q-53 0 -112.5 -14.5t-106.5 -46.5q-8 -6 -21.5 -17.5t-28 -24t-28.5 -21.5t-24 -9q-14 0 -21 6l-57 57q-4 4 -8.5 14.5t-4.5 14.5q0 6 7.5 15.5t16.5 17.5t17.5 14t10.5 8 q92 78 193.5 105.5t217.5 27.5q2 0 11.5 -3t20.5 -6t20.5 -6t11.5 -3q104 -27 187 -80t140.5 -128t87 -168t29.5 -199q0 -35 1 -77v-6q0 -39 -13 -69q-29 -68 -68 -134.5t-91 -121.5t-116.5 -94t-142.5 -51q-16 -2 -31.5 -11.5t-31.5 -9.5h-127q-16 0 -33 7t-33 12 q-90 18 -167 65t-138 115z" />
<glyph unicode="U" horiz-adv-x="1497" d="M86 958q0 111 66 205q2 2 6 9.5t4 11.5q53 59 126.5 99t153.5 40q92 0 161 -42t128 -103q6 -16 11.5 -17.5t15.5 -19.5q18 -35 31.5 -81t13.5 -87v-445q0 -43 20.5 -79.5t52 -64.5t72.5 -43t80 -15q43 0 82 17t68.5 48t46 71t16.5 83v336q0 8 8 18t19 10h84q10 0 14 -11 t4 -17v-396q0 -51 -21.5 -96t-56.5 -81t-78 -63.5t-84 -47.5q-23 -10 -50 -9.5t-52 0.5q-55 0 -111.5 15.5t-102.5 46.5t-81 76t-47 102q-4 16 -11 31.5t-7 32.5v475q0 43 -19.5 80.5t-51.5 67.5t-72 46.5t-79 16.5q-98 0 -157.5 -65.5t-59.5 -160.5q0 -29 12.5 -54.5 t12.5 -49.5q0 -12 -12.5 -25.5t-29.5 -25t-35.5 -17.5t-29.5 -6q-14 0 -25 24.5t-19.5 57.5t-12.5 62.5t-4 39.5zM961 948q0 76 27.5 143.5t75.5 119t113.5 82t143.5 30.5q59 0 114.5 -20.5t100.5 -56.5t78 -84t49 -103q4 -12 11 -23.5t7 -25.5v-92q0 -10 -6 -35t-15 -49.5 t-22.5 -44t-27.5 -19.5q-6 0 -23.5 8t-34 20.5t-30 25t-13.5 18.5q0 25 12.5 42t12.5 36v86q0 35 -23.5 66.5t-58.5 55t-74 38t-71 14.5q-39 0 -76 -18.5t-65.5 -49.5t-45 -68.5t-16.5 -76.5q0 -33 12 -59.5t12 -59.5q0 -27 -21.5 -35t-43.5 -18q-14 -4 -15 -12.5t-20 -8.5 h-14q-8 4 -17.5 27.5t-17.5 52.5t-13 56.5t-5 37.5z" />
<glyph unicode="V" horiz-adv-x="1228" d="M256 573q14 16 40 19.5t46 3.5q14 0 26.5 -4t22.5 -19q4 -61 29.5 -120.5t70 -105.5t102.5 -74.5t124 -28.5q72 0 150.5 36.5t123.5 94.5q16 25 40 51.5t24 60.5q0 8 -2 11.5t-13 3.5q-6 0 -26.5 -9.5t-44 -21.5t-44 -22.5t-24.5 -14.5h-168q-10 0 -17 7.5t-18 11.5 q-92 35 -138 102.5t-46 161.5q0 86 35 141t108 103q14 4 41 16t41 12h99q16 0 41.5 -10t50 -26.5t43 -36t18.5 -35.5q0 -10 -7 -24.5t-17.5 -27t-21.5 -21.5t-21 -9q-8 0 -13.5 8t-9.5 14q-25 14 -51.5 25.5t-56.5 11.5q-57 0 -100.5 -43t-43.5 -102v-27q23 -57 71 -92 t114 -35q61 0 112 24.5t88 66.5t57.5 95.5t20.5 108.5q0 94 -54 159.5t-145 96.5q-23 6 -50 5t-48 13q-6 4 -12 20.5t-6 20.5v80q0 4 7 6t17 2q10 2 25 3q47 0 90 -9.5t86 -23.5q55 -33 97 -67t71 -73.5t43 -92t14 -124.5q0 -39 -5 -66.5t-13 -52t-17.5 -50t-17.5 -60.5 q-10 -41 -10 -86t-8 -90q-14 -78 -57.5 -143.5t-104 -113.5t-133 -76t-148.5 -28q-51 0 -87 8.5t-66.5 20.5t-60.5 28.5t-73 33.5q-90 84 -140 167.5t-50 210.5z" />
<glyph unicode="W" horiz-adv-x="1904" d="M41 901q0 12 4 33.5t13.5 42t21.5 35t26 14.5h13q4 -6 15 -14t23.5 -17.5t21.5 -18.5t9 -20q0 -16 -8 -28.5t-8 -26.5q0 -18 13.5 -50t39.5 -32h43l8 4q43 43 84 72t101 45h41q31 0 66.5 -13.5t67.5 -36t54.5 -52t26.5 -64.5v-45q0 -96 -57.5 -155.5t-153.5 -59.5 q-4 4 -6 12.5t-2 12.5v88q0 4 14 10t31.5 17.5t32 27.5t14.5 43q0 41 -27.5 63.5t-64.5 22.5q-12 0 -30.5 -4t-35 -11.5t-29 -18.5t-12.5 -27v-256q0 -33 24.5 -63t59.5 -51.5t73 -33.5t62 -12q31 0 65 12t58 29q23 23 35 38t21.5 29.5t16.5 30.5t21 41v533l4 86 q8 8 16.5 23t15.5 32.5t14.5 33t11.5 21.5q51 86 140 124t185 38q86 0 159 -34t125 -92t79 -135q21 -61 21 -128q0 -17 -1 -35l5 -12q6 -4 12 -6q12 -8 16 -11q45 -25 82 -50t72 -66q12 -12 11 -26.5t17 -27.5q6 -29 7.5 -51t1.5 -51q0 -72 -20.5 -121t-57.5 -83t-87 -56.5 t-112 -40.5q-6 0 -10 -2q-2 0 -6 -2h-111q-10 0 -20.5 4t-16.5 8q-37 10 -66.5 22.5t-54 30t-46 42t-44.5 57.5q-12 16 -13 39.5t-19 39.5v95q0 12 10 40.5t25.5 59.5t32 53.5t30.5 22.5q12 0 20 -4q23 -23 39.5 -38.5t28.5 -43.5q-23 -29 -39 -57.5t-16 -65.5 q0 -92 61.5 -133t145.5 -41l45 2q6 0 9 1t7 1q29 8 58.5 22.5t53 35t39 48t15.5 60.5q0 31 -12.5 53.5t-28.5 52.5q-20 29 -51 42.5t-62 23.5q-4 2 -17 3t-27.5 3t-26 5t-11.5 5v199q-2 6 -4 14q-2 4 -4 9.5t-4 9.5l-4 8q-35 80 -95.5 125t-148.5 45q-61 0 -109 -23.5 t-82 -64.5t-52.5 -93.5t-18.5 -111.5v-496q0 -43 -21.5 -84t-54 -75.5t-72.5 -61t-75 -41.5q-35 -6 -55.5 -7t-51.5 -1q-121 0 -190.5 38t-105 102.5t-45 151.5t-9.5 185q-12 10 -21.5 8t-25.5 5q-72 23 -124 69.5t-52 126.5z" />
<glyph unicode="X" horiz-adv-x="1200" d="M139 807q0 18 15 31q18 0 36.5 4t34.5 4q6 0 13.5 -3t11.5 -9q0 -6 2 -27t6 -42.5t11 -37.5t16 -16q18 0 45.5 19.5t44.5 25.5q23 8 42 8h42q66 0 110.5 -20.5t102.5 -43.5q6 -2 32.5 -13t56.5 -22.5t56.5 -21.5t32.5 -14q10 -4 18.5 -10.5t20.5 -6.5q10 0 11 5.5t1 15.5 q0 16 -6 37.5t-15.5 43t-20.5 40t-21 28.5l-68 68q-29 18 -57.5 36.5t-67.5 18.5h-108q-20 0 -40 -10t-42 -10q-8 0 -18.5 12t-18.5 28.5t-13.5 32t-5.5 23.5q0 12 27 21.5t60.5 15.5t64.5 10t39 4q57 0 112.5 -17.5t102.5 -49t85 -75.5t62 -95q6 -16 18.5 -36t16.5 -36 q4 -23 5 -46.5t12 -43.5q6 -16 28 -17q37 0 72 32t61.5 77t43 92t16.5 80q0 55 -19.5 106.5t-53.5 92.5t-80 70.5t-99 41.5h-51q-31 0 -57.5 -3t-53.5 -3q-10 0 -20.5 13.5t-17.5 30t-11 32.5t-4 22q0 10 22.5 16.5t52 10.5t56 6t35.5 2q47 0 96 -10t90 -33 q18 -10 35.5 -22.5t36.5 -20.5q61 -53 103 -122.5t54 -153.5v-68q0 -135 -66.5 -230t-182.5 -157q-20 -12 -44 -14t-42 -17q-23 -18 -32 -55t-28 -59q-66 -102 -158 -146.5t-208 -44.5q-66 0 -119 9.5t-111 41.5q-51 41 -85 78t-58 97q-2 29 -2 46v44q0 23 1 45t1 47 q0 29 -10.5 54.5t-22.5 52t-22.5 53t-10.5 57.5zM319 502q0 -49 25 -88t63.5 -64.5t86 -39t92.5 -13.5q29 0 78 15.5t96 41t82 59t35 70.5q0 4 -1.5 6.5t-7.5 8.5q-4 4 -33.5 16t-72.5 27.5t-92 34t-93.5 33t-77 23.5t-40.5 9q-59 0 -99.5 -40t-40.5 -99z" />
<glyph unicode="Y" horiz-adv-x="1159" d="M164 465q0 41 8 77t29 70q8 14 24.5 29.5t33.5 31t29.5 29t12.5 23.5q0 16 -10 31.5t-23.5 32t-26 33t-18.5 32.5q-14 47 -22 91t-8 95q0 14 6 60.5t20 95.5t34.5 88t47.5 39q6 0 23.5 -10t36 -23.5t32 -26t13.5 -16.5v-10q-20 -14 -33 -37.5t-21 -50.5t-11 -54.5 t-3 -50.5q0 -27 1 -51t7 -49q29 -59 56.5 -96t59.5 -63.5t71.5 -47t91.5 -47.5q45 -4 72.5 -5t68.5 -1q66 0 115 22.5t110 36.5q20 18 48 43t53.5 54.5t44 62.5t18.5 66v141q-2 4 -2 6q0 4 -1 7t-1 5t-1 4.5t-1 4.5l-4 4q-8 23 -21 45q-6 14 -14 28l-23 23v4q8 10 17 19 l29 28q4 2 12 8.5t17 13.5t17.5 13t12.5 6q27 0 47.5 -39t33.5 -88t20 -96t7 -66q0 -53 -10 -109.5t-39 -105.5q-6 -8 -15 -21t-19.5 -28.5t-17.5 -30t-7 -24.5q0 -4 13.5 -16.5t30.5 -27.5t33.5 -30.5t22.5 -25.5q23 -41 30 -79t7 -85q0 -57 -20.5 -110.5t-57.5 -94.5 t-87 -66.5t-109 -25.5h-27q-4 2 -6 2q-8 4 -8 6v100q0 10 28.5 24.5t62.5 36t62.5 53.5t28.5 79q0 27 -10 54.5t-26.5 50t-40 36.5t-50.5 14q-14 0 -39.5 -8t-53.5 -18t-53.5 -19.5t-41.5 -13.5q-6 -4 -34 -9t-34 -9h-119q-35 0 -68.5 12t-67.5 26.5t-66.5 26.5t-63.5 12 q-29 0 -52.5 -14t-40 -36.5t-25.5 -50.5t-9 -54q0 -51 28.5 -82t62.5 -50.5t62.5 -32.5t28.5 -32v-86q0 -4 -4 -9t-8 -9h-25q-63 0 -115 25.5t-89 68.5t-57.5 98.5t-20.5 112.5z" />
<glyph unicode="Z" d="M129 774q0 109 43 198t115.5 151.5t168 96t199.5 33.5h56q16 0 16 -12v-37q0 -12 -1 -40.5t-19 -35.5h-25l-78 -4h-24h-7l-18 -4h-4q-66 -14 -120 -49t-94 -85t-61.5 -111.5t-21.5 -126.5q0 -78 31.5 -148t86 -122t125 -82.5t146.5 -30.5q23 0 76 10t108.5 28.5t98.5 45 t43 61.5q0 18 -9.5 47t-21.5 59.5t-23.5 62.5t-15.5 56v64q0 88 27.5 170t79 145.5t126 101t168.5 37.5q55 0 100.5 -22.5t82.5 -22.5q14 0 18 8.5t21 12.5q37 10 70.5 17t70.5 7q123 0 207 -56t149 -157q6 -10 6 -20t7 -21q16 -23 26 -58.5t10 -66.5v-131q0 -45 -13 -82.5 t-32.5 -71.5t-42 -67t-41.5 -67q-72 -78 -152.5 -129.5t-182.5 -73.5q-16 -2 -28.5 -8t-29.5 -6h-133q-47 0 -104.5 20.5t-104.5 42.5q-12 8 -31.5 23.5t-40 32t-40 28.5t-31.5 12q-10 0 -27.5 -12t-37 -27.5t-38 -31t-30.5 -21.5q-18 -10 -47 -22.5t-59.5 -22.5t-61.5 -16 t-53 -6h-127q-16 0 -45 7t-57.5 17t-55.5 22.5t-41 20.5q-123 88 -187.5 201.5t-64.5 267.5zM1028 795q0 -2 2 -32t6 -63.5t11.5 -61.5t17.5 -28q2 0 19.5 30t44 76t59.5 101t63.5 106.5t54 90.5t35.5 51q10 8 21.5 19.5t11.5 27.5q0 10 -12 13t-26.5 4t-27.5 0l-14 -1 q-72 0 -122 -28.5t-82.5 -75.5t-47 -107.5t-14.5 -121.5zM1149 506q0 -12 11 -21.5t22 -15.5q135 -104 301 -104q74 0 142.5 22.5t125.5 64.5t102 98t70 124q4 12 10 24.5t6 24.5v156q0 18 -9 39.5t-15 37.5q-29 86 -98.5 131.5t-157.5 45.5h-21.5t-27 -2.5t-22.5 -7.5 t-9 -15q0 -18 13.5 -38.5t17.5 -33.5q16 -35 22 -70.5t6 -70.5q0 -92 -30.5 -171t-98.5 -138q-6 -6 -15 -11.5t-19 -5.5t-22.5 10.5t-23 23.5t-17.5 28.5t-7 23.5v7q29 29 49.5 52t32.5 48.5t17 55.5t5 69v33.5t-3 48t-11 44t-25 19.5q-18 0 -27 -17.5t-22 -27.5 q-10 -16 -22.5 -39.5t-26.5 -49.5t-28.5 -48.5t-30.5 -38.5q-39 -72 -84 -148.5t-80 -152.5v-4z" />
<glyph unicode="&#x201a;" horiz-adv-x="512" d="M-156 1008q0 6 13.5 9t17.5 3h23l55 -2q6 -2 11 -2h7q4 0 13 -8q6 -31 10 -71t20 -69q10 -86 29.5 -170t30.5 -170l6 -12t6 -10q0 -4 1 -17.5t3 -29t3 -28.5t1 -17q2 -12 6 -44t10.5 -65t10.5 -57.5t6 -24.5q10 18 22.5 82t25.5 150t26.5 181t28 175t26.5 132t25 52h215 q41 0 73.5 -21.5t56 -53t37 -70.5t13.5 -74q0 -43 -17.5 -81t-46 -67.5t-67.5 -46t-80 -16.5h-25q-4 4 -10 7t-6 10v102q0 6 6 9t10 7q37 0 73 15.5t36 60.5q0 33 -14.5 51.5t-37 27.5t-49 11t-51.5 2q-14 -2 -27.5 -48t-24.5 -102t-18.5 -109.5t-9.5 -71.5q-4 -20 -10 -35 t-10 -33q-16 -125 -40 -248l-48 -246q0 -2 -1 -4t-1 -4l-4 -4q-6 -14 -25 -14q-4 0 -17.5 -1t-28.5 -1t-28.5 -1t-17.5 -1q-10 2 -25.5 57t-34 138t-37 181.5t-35.5 189.5t-31.5 162.5t-22.5 98.5q-4 18 -13.5 51t-18.5 69t-16.5 68t-7.5 48z" />
<glyph unicode="&#x25fc;" horiz-adv-x="1024" d="M0 0z" />
</font>
</defs>
</svg>
